<svg xmlns="http://www.w3.org/2000/svg">
  <!-- Chevron Right Icon -->
  <symbol id="chevron-right" viewBox="0 0 24 24">
   <path d="M15.75,9.525,11.164,4.939A1.5,1.5,0,0,0,9.043,7.061l4.586,4.585a.5.5,0,0,1,0,.708L9.043,16.939a1.5,1.5,0,0,0,2.121,2.122l4.586-4.586A3.505,3.505,0,0,0,15.75,9.525Z"/>
  </symbol>
  
  <!-- Chevron Down Icon -->
  <symbol id="chevron-down" viewBox="0 0 24 24">
    <path d="M19.061,7.854a1.5,1.5,0,0,0-2.122,0l-4.586,4.585a.5.5,0,0,1-.707,0L7.061,7.854A1.5,1.5,0,0,0,4.939,9.975l4.586,4.586a3.5,3.5,0,0,0,4.95,0l4.586-4.586A1.5,1.5,0,0,0,19.061,7.854Z"/>
  </symbol>

    <!-- Folder Icon -->
  <symbol id="folder" viewBox="0 0 24 24">
    <path d="M19,3H12.472a1.019,1.019,0,0,1-.447-.1L8.869,1.316A3.014,3.014,0,0,0,7.528,1H5A5.006,5.006,0,0,0,0,6V18a5.006,5.006,0,0,0,5,5H19a5.006,5.006,0,0,0,5-5V8A5.006,5.006,0,0,0,19,3ZM5,3H7.528a1.019,1.019,0,0,1,.447.1l3.156,1.579A3.014,3.014,0,0,0,12.472,5H19a3,3,0,0,1,2.779,1.882L2,6.994V6A3,3,0,0,1,5,3ZM19,21H5a3,3,0,0,1-3-3V8.994l20-.113V18A3,3,0,0,1,19,21Z"/>
  </symbol>

  <!-- File Icon -->
  <symbol id="file" viewBox="0 0 24 24">
    <path d="m17 14a1 1 0 0 1 -1 1h-8a1 1 0 0 1 0-2h8a1 1 0 0 1 1 1zm-4 3h-5a1 1 0 0 0 0 2h5a1 1 0 0 0 0-2zm9-6.515v8.515a5.006 5.006 0 0 1 -5 5h-10a5.006 5.006 0 0 1 -5-5v-14a5.006 5.006 0 0 1 5-5h4.515a6.958 6.958 0 0 1 4.95 2.05l3.484 3.486a6.951 6.951 0 0 1 2.051 4.949zm-6.949-7.021a5.01 5.01 0 0 0 -1.051-.78v4.316a1 1 0 0 0 1 1h4.316a4.983 4.983 0 0 0 -.781-1.05zm4.949 7.021c0-.165-.032-.323-.047-.485h-4.953a3 3 0 0 1 -3-3v-4.953c-.162-.015-.321-.047-.485-.047h-4.515a3 3 0 0 0 -3 3v14a3 3 0 0 0 3 3h10a3 3 0 0 0 3-3z"/>
  </symbol>

    <!-- Image Icon -->
  <symbol id="img" viewBox="0 0 32 32" fill="#8905f5">
    <path d="M0 26.016q0 2.496 1.76 4.224t4.256 1.76h20q2.464 0 4.224-1.76t1.76-4.224v-20q0-2.496-1.76-4.256t-4.224-1.76h-20q-2.496 0-4.256 1.76t-1.76 4.256v20zM4 26.016v-20q0-0.832 0.576-1.408t1.44-0.608h20q0.8 0 1.408 0.608t0.576 1.408v20q0 0.832-0.576 1.408t-1.408 0.576h-20q-0.832 0-1.44-0.576t-0.576-1.408zM6.016 24q0 0.832 0.576 1.44t1.408 0.576h16q0.832 0 1.408-0.576t0.608-1.44v-0.928q-0.224-0.448-1.12-2.688t-1.6-3.584-1.28-2.112q-0.544-0.576-1.12-0.608t-1.152 0.384-1.152 1.12-1.184 1.568-1.152 1.696-1.152 1.6-1.088 1.184-1.088 0.448q-0.576 0-1.664-1.44-0.16-0.192-0.48-0.608-1.12-1.504-1.6-1.824-0.768-0.512-1.184 0.352-0.224 0.512-0.928 2.24t-1.056 2.56v0.64zM6.016 9.024q0 1.248 0.864 2.112t2.112 0.864 2.144-0.864 0.864-2.112-0.864-2.144-2.144-0.864-2.112 0.864-0.864 2.144z"></path>
  </symbol>

    <!-- CSS Icon -->
  <symbol id="css" viewBox="0 0 281.465 281.465" fill="#1f66f2">
<path d="M273.661,114.318V67.035h-45.558L236.886,0h-47.69l-8.783,67.035h-60.084L129.113,0H81.425L72.64,67.035H7.804v47.283
	h58.649l-6.904,52.791H7.804v47.289h45.559l-8.784,67.066h47.687l8.787-67.066h60.083l-8.786,67.066h47.691l8.783-67.066h64.836
	v-47.289h-58.647l6.901-52.791H273.661z M167.326,167.109h-60.084l6.9-52.791h60.082L167.326,167.109z"/>
  </symbol>

    <!-- JS Icon -->
  <symbol id="js" viewBox="0 0 32 32" fill="yellow">
      <path d="M2 2v28h28v-28zM17.238 23.837c0 2.725-1.6 3.969-3.931 3.969-2.106 0-3.325-1.087-3.95-2.406l2.144-1.294c0.413 0.731 0.788 1.35 1.694 1.35 0.862 0 1.412-0.338 1.412-1.656v-8.944h2.631zM23.462 27.806c-2.444 0-4.025-1.162-4.794-2.688l2.144-1.237c0.563 0.919 1.3 1.6 2.594 1.6 1.087 0 1.788-0.544 1.788-1.3 0-0.9-0.713-1.219-1.919-1.75l-0.656-0.281c-1.9-0.806-3.156-1.825-3.156-3.969 0-1.975 1.506-3.475 3.85-3.475 1.675 0 2.875 0.581 3.738 2.106l-2.050 1.313c-0.45-0.806-0.938-1.125-1.694-1.125-0.768 0-1.256 0.488-1.256 1.125 0 0.788 0.488 1.106 1.619 1.6l0.656 0.281c2.238 0.956 3.494 1.938 3.494 4.137 0 2.363-1.863 3.662-4.357 3.662z"/>
  </symbol>

    <!-- ts Icon -->
  <symbol id="ts" viewBox="0 0 256 256" fill="yellow">
    	<g>
		<polygon fill="#007ACC" transform="translate(128.000000, 128.000000) scale(1, -1) translate(-128.000000, -128.000000) " points="0 128 0 0 128 0 256 0 256 128 256 256 128 256 0 256">

</polygon>
		<path d="M146.658132,223.436863 L146.739401,212.953054 L130.079084,212.953054 L113.418767,212.953054 L113.418767,165.613371 L113.418767,118.273689 L101.63464,118.273689 L89.8505126,118.273689 L89.8505126,165.613371 L89.8505126,212.953054 L73.1901951,212.953054 L56.5298776,212.953054 L56.5298776,223.233689 C56.5298776,228.922577 56.6517824,233.676863 56.8143221,233.798768 C56.9362269,233.961308 77.2130522,234.042577 101.797179,234.001943 L146.536227,233.880038 L146.658132,223.436863 Z" fill="#FFFFFF" transform="translate(101.634640, 176.142993) rotate(-180.000000) translate(-101.634640, -176.142993) ">

</path>
		<path d="M206.566631,234.272145 C213.068219,232.646748 218.025679,229.761668 222.57679,225.048018 C224.933616,222.528653 228.428219,217.936907 228.712663,216.839764 C228.793933,216.514684 217.659965,209.037859 210.914568,204.852462 C210.670758,204.689922 209.69552,205.74643 208.598377,207.371827 C205.306949,212.166748 201.852981,214.239129 196.570441,214.604843 C188.809171,215.133097 183.811076,211.069605 183.851711,204.283573 C183.851711,202.292462 184.136155,201.114049 184.948854,199.488653 C186.65552,195.953414 189.825044,193.840399 199.7806,189.533097 C218.106949,181.649922 225.949489,176.448653 230.825679,169.053097 C236.270758,160.804208 237.489806,147.638494 233.792028,137.845478 C229.728536,127.199129 219.651076,119.966113 205.469489,117.568653 C201.080917,116.796589 190.678377,116.918494 185.964727,117.771827 C175.684092,119.600399 165.931711,124.679764 159.917743,131.343891 C157.560917,133.944526 152.969171,140.730557 153.253616,141.218176 C153.37552,141.380716 154.432028,142.030875 155.610441,142.721668 C156.748219,143.371827 161.05552,145.850557 165.119012,148.207383 L172.473933,152.474049 L174.01806,150.198494 C176.171711,146.907065 180.885362,142.396589 183.729806,140.893097 C191.897425,136.585795 203.112663,137.195319 208.639012,142.15278 C210.995838,144.30643 211.971076,146.541351 211.971076,149.83278 C211.971076,152.799129 211.605362,154.099446 210.061235,156.334367 C208.070123,159.178811 204.006631,161.576272 192.466314,166.574367 C179.259965,172.263256 173.571076,175.798494 168.369806,181.406113 C165.362822,184.656907 162.518377,189.858176 161.339965,194.206113 C160.364727,197.822621 160.120917,206.884208 160.892981,210.541351 C163.61552,223.300716 173.245996,232.199764 187.143139,234.841034 C191.653616,235.694367 202.137425,235.369287 206.566631,234.272145 Z" fill="#FFFFFF" transform="translate(194.578507, 176.190240) scale(1, -1) translate(-194.578507, -176.190240) ">

</path>
	</g>
  </symbol>

     <!-- svg Icon -->
  <symbol id="svg" viewBox="0 0 24 24" fill="#8905f5">
    <path d="M22,1H18a1,1,0,0,0-1,1V3H7V2A1,1,0,0,0,6,1H2A1,1,0,0,0,1,2V6A1,1,0,0,0,2,7H3V17H2a1,1,0,0,0-1,1v4a1,1,0,0,0,1,1H6a1,1,0,0,0,1-1V21H17v1a1,1,0,0,0,1,1h4a1,1,0,0,0,1-1V18a1,1,0,0,0-1-1H21V7h1a1,1,0,0,0,1-1V2A1,1,0,0,0,22,1ZM3,3H5V5H3ZM5,21H3V19H5Zm12-3v1H7V18a1,1,0,0,0-1-1H5V7H6A1,1,0,0,0,7,6V5H17V6a1,1,0,0,0,1,1h1V17H18A1,1,0,0,0,17,18Zm4,3H19V19h2ZM21,5H19V3h2ZM13,9v6h1a1,1,0,0,1,0,2H10a1,1,0,0,1,0-2h1V9H10a1,1,0,0,1,0-2h4a1,1,0,0,1,0,2Z"/>
  </symbol>

       <!-- html Icon -->
  <symbol id="html" viewBox="0 0 20 20" fill="#F7622C">
        <g id="Page-1" stroke="none" stroke-width="1" fill="none" fill-rule="evenodd">
        <g id="Dribbble-Light-Preview" transform="translate(-61.000000, -7639.000000)" fill="#F7622C">
            <g id="icons" transform="translate(56.000000, 160.000000)">
                <path d="M19.4350881,7485 L19.4279481,7485 L10.8119794,7485 L11.0180201,7487 L19.2300674,7487 C19.109707,7488.752 18.7455658,7492.464 18.6119454,7494.153 L13.99949,7495.451 L13.99949,7495.455 L13.98929,7495.46 L9.37377458,7493.836 L9.05757353,7490 L11.3199411,7490 L11.4800816,7492.063 L13.99337,7493 L13.99949,7493 L16.5086984,7492.1 L16.7667592,7489 L8.95659319,7489 C8.91885306,7488.599 8.43333144,7483.392 8.34867116,7483 L19.6370488,7483 C19.5738086,7483.66 19.5095484,7484.338 19.4350881,7485 L19.4350881,7485 Z M5,7479 L6.63812546,7497.148 L13.98929,7499 L21.3598345,7497.111 L23,7479 L5,7479 Z" id="html-[#124]">

</path>
            </g>
        </g>
    </g>
  </symbol>

      <!-- edit Icon -->
  <symbol id="edit" viewBox="0 0 24 24">
    <path d="M20 5.995h-1v12h1c1.103 0 2-.897 2-2v-8c0-1.102-.897-2-2-2z"/><path d="M17 17.995V4h2.995V2h-8v2H15v1.995H4c-1.103 0-2 .897-2 2v8c0 1.103.897 2 2 2h11V20h-3.005v2h8v-2H17v-2.005zm-11-4v-4h9v4H6z"/>
  </symbol>
</svg>